<?xml version="1.0" standalone="no"?>
<!DOCTYPE svg PUBLIC "-//W3C//DTD SVG 20010904//EN"
 "http://www.w3.org/TR/2001/REC-SVG-20010904/DTD/svg10.dtd">
<svg version="1.0" xmlns="http://www.w3.org/2000/svg"
 width="186.000000pt" height="271.000000pt" viewBox="0 0 186.000000 271.000000"
 preserveAspectRatio="xMidYMid meet">

<g transform="translate(0.000000,271.000000) scale(0.100000,-0.100000)"
fill="#000000" stroke="none">
<path d="M590 2580 l0 -131 -34 -29 c-45 -40 -69 -101 -60 -154 3 -22 38 -115
75 -206 38 -91 72 -184 75 -207 9 -60 -21 -116 -109 -199 -193 -184 -308 -355
-406 -603 -89 -221 -119 -379 -123 -628 -3 -196 1 -208 82 -249 58 -29 113
-37 179 -24 53 10 54 10 94 -26 22 -20 60 -46 86 -57 62 -29 167 -28 233 1
l47 21 58 -35 c71 -43 125 -58 180 -50 44 6 115 37 145 63 14 13 23 12 77 -7
46 -17 75 -21 128 -18 80 5 128 26 182 80 33 33 43 38 59 29 70 -38 156 -31
212 16 75 63 96 171 81 416 -26 404 -160 682 -491 1018 -86 87 -133 143 -141
166 -21 66 -6 131 76 313 42 93 79 185 82 204 7 45 -11 98 -48 137 -29 31 -29
31 -29 160 l0 129 -60 0 -60 0 0 -115 c0 -113 0 -115 -22 -115 -38 -1 -133
-44 -179 -82 l-44 -36 -43 38 c-41 37 -92 61 -154 74 l-28 6 0 115 0 115 -60
0 -60 0 0 -130z"/>
</g>
</svg>
