<?xml version="1.0" standalone="no"?>
<!DOCTYPE svg PUBLIC "-//W3C//DTD SVG 20010904//EN"
 "http://www.w3.org/TR/2001/REC-SVG-20010904/DTD/svg10.dtd">
<svg version="1.0" xmlns="http://www.w3.org/2000/svg"
 width="225.000000pt" height="225.000000pt" viewBox="0 0 225.000000 225.000000"
 preserveAspectRatio="xMidYMid meet">

<g transform="translate(0.000000,225.000000) scale(0.100000,-0.100000)"
fill="#000000" stroke="none">
<path d="M970 1893 c0 -23 23 -63 39 -67 9 -3 30 -7 47 -11 18 -3 40 -15 50
-26 17 -19 18 -19 38 0 12 11 35 23 51 26 57 13 62 16 73 41 23 49 22 49 -143
49 -114 0 -155 -3 -155 -12z"/>
<path d="M975 1356 c-36 -11 -47 -24 -103 -112 -99 -156 -286 -481 -326 -566
-38 -82 -43 -103 -25 -113 5 -4 14 -17 19 -30 10 -26 97 -72 110 -59 7 7 194
443 241 562 5 13 13 21 18 18 5 -3 -47 -138 -115 -300 -68 -163 -124 -301
-124 -309 0 -15 48 -41 97 -51 18 -4 37 -15 42 -23 6 -12 20 -15 61 -11 29 3
55 10 59 16 3 6 26 107 51 226 24 119 48 216 52 216 13 0 10 -19 -38 -245 -25
-119 -43 -220 -39 -223 4 -4 37 -5 73 -3 87 5 102 5 195 -4 68 -7 77 -6 77 9
0 9 -14 94 -31 189 -63 356 -67 382 -58 391 5 6 9 8 9 5 0 -21 100 -562 104
-566 3 -3 29 -8 57 -11 40 -4 54 -1 60 11 5 8 24 19 42 23 17 3 47 14 65 23
42 20 43 14 -49 269 -105 291 -110 304 -97 300 9 -3 78 -182 164 -428 14 -41
30 -79 34 -84 12 -13 100 33 111 58 5 11 14 28 21 37 14 21 -9 79 -95 234 -74
135 -295 504 -314 526 -15 18 -101 44 -111 34 -3 -3 18 -80 47 -171 29 -91 50
-172 47 -180 -7 -19 -85 -39 -100 -24 -6 6 -27 91 -47 188 l-35 177 -33 -172
c-19 -95 -39 -180 -45 -189 -10 -13 -18 -14 -55 -4 -23 6 -44 17 -47 24 -3 8
18 86 45 175 28 89 51 166 51 171 0 12 -14 11 -65 -4z"/>
</g>
</svg>
