<?xml version="1.0" standalone="no"?>
<!DOCTYPE svg PUBLIC "-//W3C//DTD SVG 20010904//EN"
 "http://www.w3.org/TR/2001/REC-SVG-20010904/DTD/svg10.dtd">
<svg version="1.0" xmlns="http://www.w3.org/2000/svg"
 width="640.000000pt" height="1280.000000pt" viewBox="0 0 640.000000 1280.000000"
 preserveAspectRatio="xMidYMid meet">
<metadata>
Created by potrace 1.15, written by Peter Selinger 2001-2017
</metadata>
<g transform="translate(0.000000,1280.000000) scale(0.100000,-0.100000)"
fill="#000000" stroke="none">
<path d="M3172 12753 c-198 -172 -249 -424 -117 -581 24 -29 25 -34 25 -181
l0 -151 -38 0 c-67 0 -77 -21 -77 -166 0 -88 -4 -127 -12 -132 -7 -5 -95 -13
-195 -20 -201 -13 -290 -25 -359 -48 -43 -14 -52 -13 -170 16 -137 33 -211 37
-285 15 -128 -38 -234 -206 -234 -370 0 -114 62 -256 148 -338 l29 -27 79 40
c47 24 101 43 131 47 l51 6 0 -149 c-2 -245 20 -327 206 -758 112 -260 160
-376 195 -473 l23 -62 -35 -88 c-40 -102 -133 -382 -176 -533 -180 -631 -274
-1325 -275 -2030 -1 -449 9 -555 93 -1017 145 -795 66 -1891 -219 -3036 -205
-820 -484 -1638 -809 -2369 -33 -76 -76 -169 -96 -208 -19 -38 -31 -70 -26
-70 6 0 90 30 188 66 220 82 280 102 363 120 96 20 259 18 354 -6 117 -30 156
-42 156 -51 0 -17 -83 -111 -120 -135 -22 -15 -40 -28 -40 -30 0 -2 90 -4 200
-4 l200 0 0 31 c0 17 3 29 8 27 87 -45 146 -52 201 -24 18 10 69 52 112 94 44
42 92 82 107 89 79 35 148 3 277 -132 62 -63 112 -106 129 -111 46 -11 95 11
201 91 122 92 173 118 247 123 80 6 161 -33 251 -122 37 -37 79 -71 93 -76 41
-16 97 -12 185 14 73 22 85 23 95 10 10 -12 45 -14 210 -12 192 3 198 4 169
20 -16 9 -52 37 -80 61 l-50 45 30 12 c89 35 267 72 365 77 172 8 290 -26 425
-123 l72 -51 -39 101 c-336 856 -624 1804 -808 2651 -178 823 -262 1644 -231
2272 16 342 33 490 96 828 53 285 60 369 60 720 0 383 -26 693 -89 1087 -92
566 -269 1211 -442 1600 l-42 97 43 113 c23 62 84 210 135 328 205 479 244
617 253 900 l2 75 49 9 c61 11 130 -4 210 -44 32 -16 62 -27 67 -24 5 3 32 37
59 76 122 174 125 361 8 530 -74 106 -184 152 -308 128 -30 -5 -101 -24 -157
-41 l-102 -32 -73 21 c-104 31 -251 52 -416 59 -86 4 -146 10 -150 17 -4 6 -9
69 -12 140 -5 119 -7 130 -29 147 -13 11 -38 19 -57 19 l-34 0 0 149 c0 93 4
152 10 156 18 11 56 78 73 129 33 97 12 226 -54 331 -28 45 -156 185 -169 185
-3 0 -29 -21 -58 -47z"/>
</g>
</svg>
