<?xml version="1.0" standalone="no"?>
<!DOCTYPE svg PUBLIC "-//W3C//DTD SVG 20010904//EN"
 "http://www.w3.org/TR/2001/REC-SVG-20010904/DTD/svg10.dtd">
<svg version="1.0" xmlns="http://www.w3.org/2000/svg"
 width="786.000000pt" height="1280.000000pt" viewBox="0 0 786.000000 1280.000000"
 preserveAspectRatio="xMidYMid meet">
<g transform="translate(0.000000,1280.000000) scale(0.100000,-0.100000)"
fill="#000000" stroke="none">
<path d="M4069 12099 c-44 -48 -126 -223 -109 -234 5 -3 29 39 55 92 68 144
101 171 144 117 26 -33 53 -116 49 -151 -2 -19 -15 -36 -45 -55 -48 -33 -68
-79 -60 -139 6 -45 0 -51 -68 -69 -45 -13 -65 -29 -201 -169 l-151 -155 -46
13 c-53 15 -84 10 -135 -24 -20 -13 -109 -52 -197 -86 -201 -79 -261 -114
-355 -208 -60 -61 -85 -95 -123 -171 -25 -52 -56 -133 -69 -178 l-22 -84 -70
-48 c-120 -80 -272 -172 -466 -279 -214 -119 -291 -172 -350 -238 -109 -123
-91 -213 33 -169 68 24 211 107 449 259 202 130 353 215 362 206 11 -11 7
-1159 -5 -1394 -14 -284 -7 -508 20 -660 38 -204 138 -585 281 -1060 122 -407
122 -404 -43 -781 -166 -378 -238 -656 -296 -1139 -11 -93 -41 -435 -66 -760
-173 -2244 -250 -2788 -480 -3386 -80 -207 -99 -271 -91 -313 16 -81 85 -135
176 -136 25 0 50 -4 56 -8 6 -4 19 -34 29 -67 19 -69 53 -118 96 -141 17 -9
115 -25 232 -40 140 -17 265 -39 407 -74 331 -80 473 -110 644 -135 268 -40
583 -75 726 -82 128 -6 138 -5 185 17 49 23 55 23 335 21 451 -4 486 6 602
172 11 15 81 28 407 77 372 55 396 60 435 87 56 39 102 133 118 237 20 140 0
290 -126 946 -235 1230 -265 1440 -426 3002 -104 1010 -156 1241 -407 1802
-120 269 -127 294 -127 431 1 133 9 176 86 420 141 448 254 872 293 1100 18
102 21 325 6 400 -6 28 -39 142 -75 255 -40 128 -70 248 -80 315 -20 127 -35
448 -36 718 0 166 2 187 16 187 24 0 289 -145 507 -277 106 -64 212 -127 236
-140 80 -42 142 -42 181 -1 60 65 -21 176 -234 316 -56 37 -238 141 -404 232
-221 120 -304 170 -307 185 -2 11 -9 52 -15 92 -21 128 -92 237 -189 287 -38
20 -484 136 -522 136 -16 0 -40 -5 -54 -12 -24 -11 -30 -8 -91 53 -36 35 -103
114 -148 174 -46 61 -109 134 -140 163 -58 52 -153 104 -216 117 -53 11 -60
21 -60 86 0 56 2 59 38 85 20 16 43 35 50 43 44 53 -35 251 -100 251 -11 0
-33 -14 -49 -31z m253 -1046 c166 -107 298 -186 477 -284 l149 -81 35 -76 c48
-102 61 -188 54 -332 -11 -195 -79 -592 -147 -855 -114 -440 -242 -698 -553
-1114 -140 -187 -156 -204 -174 -189 -49 40 -92 132 -156 328 -66 203 -69 208
-208 450 -78 135 -168 301 -199 370 -146 317 -293 858 -307 1125 -6 117 8 246
32 281 7 11 57 47 112 79 54 32 181 113 283 180 209 137 229 149 320 182 104
38 136 31 282 -64z"/>
</g>
</svg>
